# Blender v2.74 (sub 0) OBJ File: ''
# www.blender.org
mtllib gate.mtl
o Merged_Meshes
v 1.150000 0.000000 0.000000
v 1.075000 -0.000000 -0.129900
v 0.925000 -0.000000 -0.129900
v 0.850000 0.000000 0.000000
v 0.925000 0.000000 0.129900
v 1.075000 0.000000 0.129900
v 1.062500 -0.440100 0.000000
v 0.993200 -0.411400 -0.129900
v 0.854600 -0.354000 -0.129900
v 0.785300 -0.325300 0.000000
v 0.854600 -0.354000 0.129900
v 0.993200 -0.411400 0.129900
v 0.813200 -0.813200 0.000000
v 0.760100 -0.760100 -0.129900
v 0.654100 -0.654100 -0.129900
v 0.601000 -0.601000 0.000000
v 0.654100 -0.654100 0.129900
v 0.760100 -0.760100 0.129900
v 0.440100 -1.062500 0.000000
v 0.411400 -0.993200 -0.129900
v 0.354000 -0.854600 -0.129900
v 0.325300 -0.785300 0.000000
v 0.354000 -0.854600 0.129900
v 0.411400 -0.993200 0.129900
v 0.000000 -1.150000 0.000000
v 0.000000 -1.075000 -0.129900
v 0.000000 -0.925000 -0.129900
v 0.000000 -0.850000 0.000000
v 0.000000 -0.925000 0.129900
v 0.000000 -1.075000 0.129900
v -0.440100 -1.062500 0.000000
v -0.411400 -0.993200 -0.129900
v -0.354000 -0.854600 -0.129900
v -0.325300 -0.785300 0.000000
v -0.354000 -0.854600 0.129900
v -0.411400 -0.993200 0.129900
v -0.813200 -0.813200 0.000000
v -0.760100 -0.760100 -0.129900
v -0.654100 -0.654100 -0.129900
v -0.601000 -0.601000 0.000000
v -0.654100 -0.654100 0.129900
v -0.760100 -0.760100 0.129900
v -1.062500 -0.440100 0.000000
v -0.993200 -0.411400 -0.129900
v -0.854600 -0.354000 -0.129900
v -0.785300 -0.325300 0.000000
v -0.854600 -0.354000 0.129900
v -0.993200 -0.411400 0.129900
v -1.150000 0.000000 0.000000
v -1.075000 -0.000000 -0.129900
v -0.925000 -0.000000 -0.129900
v -0.850000 0.000000 0.000000
v -0.925000 0.000000 0.129900
v -1.075000 0.000000 0.129900
v -1.062500 0.440100 -0.000000
v -0.993200 0.411400 -0.129900
v -0.854600 0.354000 -0.129900
v -0.785300 0.325300 -0.000000
v -0.854600 0.354000 0.129900
v -0.993200 0.411400 0.129900
v -0.813200 0.813200 -0.000000
v -0.760100 0.760100 -0.129900
v -0.654100 0.654100 -0.129900
v -0.601000 0.601000 -0.000000
v -0.654100 0.654100 0.129900
v -0.760100 0.760100 0.129900
v -0.440100 1.062500 -0.000000
v -0.411400 0.993200 -0.129900
v -0.354000 0.854600 -0.129900
v -0.325300 0.785300 -0.000000
v -0.354000 0.854600 0.129900
v -0.411400 0.993200 0.129900
v 0.000000 1.150000 -0.000000
v 0.000000 1.075000 -0.129900
v 0.000000 0.925000 -0.129900
v 0.000000 0.850000 -0.000000
v 0.000000 0.925000 0.129900
v 0.000000 1.075000 0.129900
v 0.440100 1.062500 -0.000000
v 0.411400 0.993200 -0.129900
v 0.354000 0.854600 -0.129900
v 0.325300 0.785300 -0.000000
v 0.354000 0.854600 0.129900
v 0.411400 0.993200 0.129900
v 0.813200 0.813200 -0.000000
v 0.760100 0.760100 -0.129900
v 0.654100 0.654100 -0.129900
v 0.601000 0.601000 -0.000000
v 0.654100 0.654100 0.129900
v 0.760100 0.760100 0.129900
v 1.062500 0.440100 -0.000000
v 0.993200 0.411400 -0.129900
v 0.854600 0.354000 -0.129900
v 0.785300 0.325300 -0.000000
v 0.854600 0.354000 0.129900
v 0.993200 0.411400 0.129900
v 0.000000 0.000000 0.000000
v 0.931800 0.000000 0.000000
v 0.806962 0.465900 0.000000
v 0.465900 0.806962 0.000000
v 0.000000 0.931800 0.000000
v -0.465900 0.806962 0.000000
v -0.806962 0.465900 0.000000
v -0.931800 0.000000 0.000000
v -0.806962 -0.465900 0.000000
v -0.465900 -0.806962 0.000000
v -0.000000 -0.931800 0.000000
v 0.465900 -0.806962 0.000000
v 0.806962 -0.465900 0.000000
v 0.931800 -0.000000 0.000000
v 0.000000 0.000000 0.000000
v 0.931800 0.000000 0.000000
v 0.806962 0.465900 0.000000
v 0.465900 0.806962 0.000000
v 0.000000 0.931800 0.000000
v -0.465900 0.806962 0.000000
v -0.806962 0.465900 0.000000
v -0.931800 0.000000 0.000000
v -0.806962 -0.465900 0.000000
v -0.465900 -0.806962 0.000000
v -0.000000 -0.931800 0.000000
v 0.465900 -0.806962 0.000000
v 0.806962 -0.465900 0.000000
v 0.931800 -0.000000 0.000000
vt 0.500000 0.500000
vt 0.500000 0.308652
vt 1.000000 0.321130
vt 1.000000 0.500000
vt 0.032609 0.500000
vt 0.068174 0.321130
vt 0.128435 0.346087
vt 0.097826 0.500000
vt 1.000000 0.346087
vt 0.500000 0.358565
vt 0.902174 0.500000
vt 0.871565 0.346087
vt 0.931826 0.321130
vt 0.967391 0.500000
vt 0.500000 0.146435
vt 1.000000 0.169522
vt 0.169522 0.169522
vt 0.215609 0.215609
vt 1.000000 0.215609
vt 0.500000 0.238696
vt 0.784391 0.215609
vt 0.830478 0.169522
vt 0.853565 0.500000
vt 0.691348 0.500000
vt 0.678870 1.000000
vt 0.830478 1.000000
vt 0.321130 0.068174
vt 0.346087 0.128435
vt 0.784391 1.000000
vt 0.653913 1.000000
vt 0.641435 0.500000
vt 0.761304 0.500000
vt 0.238696 0.500000
vt 0.358565 0.500000
vt 0.346087 0.000000
vt 0.215609 0.000000
vt 0.653913 0.128435
vt 0.678870 0.068174
vt 0.169522 0.000000
vt 0.321130 0.000000
vt 0.308652 0.500000
vt 0.146435 0.500000
vt 0.500000 1.000000
vt 0.500000 0.032609
vt 0.500000 0.097826
vt 0.500000 0.000000
vt 0.000000 0.321130
vt 0.000000 0.169522
vt 0.000000 0.215609
vt 0.000000 0.346087
vt 0.000000 0.500000
vt 0.500000 0.691348
vt 1.000000 0.678870
vt 0.931826 0.678870
vt 0.871565 0.653913
vt 1.000000 0.653913
vt 0.500000 0.641435
vt 0.128435 0.653913
vt 0.068174 0.678870
vt 0.500000 0.853565
vt 1.000000 0.830478
vt 0.830478 0.830478
vt 0.784391 0.784391
vt 1.000000 0.784391
vt 0.500000 0.761304
vt 0.215609 0.784391
vt 0.169522 0.830478
vt 0.321130 1.000000
vt 0.169522 1.000000
vt 0.678870 0.931826
vt 0.653913 0.871565
vt 0.215609 1.000000
vt 0.346087 1.000000
vt 0.653913 0.000000
vt 0.784391 0.000000
vt 0.346087 0.871565
vt 0.321130 0.931826
vt 0.830478 0.000000
vt 0.678870 0.000000
vt 0.500000 0.967391
vt 0.500000 0.902174
vt 0.000000 0.678870
vt 0.000000 0.830478
vt 0.000000 0.784391
vt 0.000000 0.653913
vt 0.905130 0.500000
vt 0.850853 0.702565
vt 0.702565 0.850853
vt 0.500000 0.905130
vt 0.297435 0.850853
vt 0.149147 0.702565
vt 0.094870 0.500000
vt 0.149147 0.297435
vt 0.297435 0.149147
vt 0.500000 0.094870
vt 0.702565 0.149147
vt 0.850853 0.297435
vn 1.000000 0.000000 0.000000
vn 0.923900 -0.382700 0.000000
vn 0.458500 -0.189900 -0.868200
vn 0.496300 0.000000 -0.868100
vn -0.458500 0.189900 -0.868200
vn -0.496300 -0.000000 -0.868100
vn -0.923900 0.382700 -0.000000
vn -1.000000 0.000000 0.000000
vn -0.458500 0.189900 0.868200
vn -0.496300 -0.000000 0.868100
vn 0.458500 -0.189900 0.868200
vn 0.496300 0.000000 0.868100
vn 0.707100 -0.707100 0.000000
vn 0.350900 -0.350900 -0.868200
vn -0.350900 0.350900 -0.868200
vn -0.707100 0.707100 0.000000
vn -0.350900 0.350900 0.868200
vn 0.350900 -0.350900 0.868200
vn 0.382700 -0.923900 0.000000
vn 0.189900 -0.458500 -0.868200
vn -0.189900 0.458500 -0.868200
vn -0.382700 0.923900 0.000000
vn -0.189900 0.458500 0.868200
vn 0.189900 -0.458500 0.868200
vn 0.000000 -1.000000 0.000000
vn -0.000000 -0.496300 -0.868100
vn 0.000000 0.496300 -0.868100
vn 0.000000 1.000000 0.000000
vn 0.000000 0.496300 0.868100
vn -0.000000 -0.496300 0.868100
vn -0.382700 -0.923900 0.000000
vn -0.189900 -0.458500 -0.868200
vn 0.189900 0.458500 -0.868200
vn 0.382700 0.923900 0.000000
vn 0.189900 0.458500 0.868200
vn -0.189900 -0.458500 0.868200
vn -0.707100 -0.707100 0.000000
vn -0.350900 -0.350900 -0.868200
vn 0.350900 0.350900 -0.868200
vn 0.707100 0.707100 0.000000
vn 0.350900 0.350900 0.868200
vn -0.350900 -0.350900 0.868200
vn -0.923900 -0.382700 0.000000
vn -0.458500 -0.189900 -0.868200
vn 0.458500 0.189900 -0.868200
vn 0.923900 0.382700 -0.000000
vn 0.458500 0.189900 0.868200
vn -0.458500 -0.189900 0.868200
vn 0.000000 0.000000 1.000000
vn 0.000000 0.000000 -1.000000
usemtl ezgif_com_optimize_gifMaterial
s 1
f 1/1/1 7/2/2 8/3/3 2/4/4
f 2/5/4 8/6/3 9/7/5 3/8/6
f 3/4/6 9/9/5 10/10/7 4/1/8
f 4/1/8 10/10/7 11/9/9 5/4/10
f 5/11/10 11/12/9 12/13/11 6/14/12
f 6/4/12 12/3/11 7/2/2 1/1/1
f 7/2/2 13/15/13 14/16/14 8/3/3
f 8/6/3 14/17/14 15/18/15 9/7/5
f 9/9/5 15/19/15 16/20/16 10/10/7
f 10/10/7 16/20/16 17/19/17 11/9/9
f 11/12/9 17/21/17 18/22/18 12/13/11
f 12/3/11 18/16/18 13/15/13 7/2/2
f 13/23/13 19/24/19 20/25/20 14/26/14
f 14/17/14 20/27/20 21/28/21 15/18/15
f 15/29/15 21/30/21 22/31/22 16/32/16
f 16/33/16 22/34/22 23/35/23 17/36/17
f 17/21/17 23/37/23 24/38/24 18/22/18
f 18/39/18 24/40/24 19/41/19 13/42/13
f 19/24/19 25/1/25 26/43/26 20/25/20
f 20/27/20 26/44/26 27/45/27 21/28/21
f 21/30/21 27/43/27 28/1/28 22/31/22
f 22/34/22 28/1/28 29/46/29 23/35/23
f 23/37/23 29/45/29 30/44/30 24/38/24
f 24/40/24 30/46/30 25/1/25 19/41/19
f 25/1/25 31/24/31 32/25/32 26/43/26
f 26/44/26 32/38/32 33/37/33 27/45/27
f 27/43/27 33/30/33 34/31/34 28/1/28
f 28/1/28 34/34/34 35/35/35 29/46/29
f 29/45/29 35/28/35 36/27/36 30/44/30
f 30/46/30 36/40/36 31/41/31 25/1/25
f 31/24/31 37/23/37 38/26/38 32/25/32
f 32/38/32 38/22/38 39/21/39 33/37/33
f 33/30/33 39/29/39 40/32/40 34/31/34
f 34/34/34 40/33/40 41/36/41 35/35/35
f 35/28/35 41/18/41 42/17/42 36/27/36
f 36/40/36 42/39/42 37/42/37 31/41/31
f 37/15/37 43/2/43 44/47/44 38/48/38
f 38/22/38 44/13/44 45/12/45 39/21/39
f 39/49/39 45/50/45 46/10/46 40/20/40
f 40/20/40 46/10/46 47/50/47 41/49/41
f 41/18/41 47/7/47 48/6/48 42/17/42
f 42/48/42 48/47/48 43/2/43 37/15/37
f 43/2/43 49/1/8 50/51/6 44/47/44
f 44/13/44 50/14/6 51/11/4 45/12/45
f 45/50/45 51/51/4 52/1/1 46/10/46
f 46/10/46 52/1/1 53/51/12 47/50/47
f 47/7/47 53/8/12 54/5/10 48/6/48
f 48/47/48 54/51/10 49/1/8 43/2/43
f 49/1/8 55/52/7 56/53/5 50/4/6
f 50/14/6 56/54/5 57/55/3 51/11/4
f 51/4/4 57/56/3 58/57/2 52/1/1
f 52/1/1 58/57/2 59/56/11 53/4/12
f 53/8/12 59/58/11 60/59/9 54/5/10
f 54/4/10 60/53/9 55/52/7 49/1/8
f 55/52/7 61/60/16 62/61/15 56/53/5
f 56/54/5 62/62/15 63/63/14 57/55/3
f 57/56/3 63/64/14 64/65/13 58/57/2
f 58/57/2 64/65/13 65/64/18 59/56/11
f 59/58/11 65/66/18 66/67/17 60/59/9
f 60/53/9 66/61/17 61/60/16 55/52/7
f 61/42/16 67/41/22 68/68/21 62/69/15
f 62/62/15 68/70/21 69/71/20 63/63/14
f 63/72/14 69/73/20 70/34/19 64/33/13
f 64/32/13 70/31/19 71/74/24 65/75/18
f 65/66/18 71/76/24 72/77/23 66/67/17
f 66/78/17 72/79/23 67/24/22 61/23/16
f 67/41/22 73/1/28 74/43/27 68/68/21
f 68/70/21 74/80/27 75/81/26 69/71/20
f 69/73/20 75/43/26 76/1/25 70/34/19
f 70/31/19 76/1/25 77/46/30 71/74/24
f 71/76/24 77/81/30 78/80/29 72/77/23
f 72/79/23 78/46/29 73/1/28 67/24/22
f 73/1/28 79/41/34 80/68/33 74/43/27
f 74/80/27 80/77/33 81/76/32 75/81/26
f 75/43/26 81/73/32 82/34/31 76/1/25
f 76/1/25 82/31/31 83/74/36 77/46/30
f 77/81/30 83/71/36 84/70/35 78/80/29
f 78/46/29 84/79/35 79/24/34 73/1/28
f 79/41/34 85/42/40 86/69/39 80/68/33
f 80/77/33 86/67/39 87/66/38 81/76/32
f 81/73/32 87/72/38 88/33/37 82/34/31
f 82/31/31 88/32/37 89/75/42 83/74/36
f 83/71/36 89/63/42 90/62/41 84/70/35
f 84/79/35 90/78/41 85/23/40 79/24/34
f 85/60/40 91/52/46 92/82/45 86/83/39
f 86/67/39 92/59/45 93/58/44 87/66/38
f 87/84/38 93/85/44 94/57/43 88/65/37
f 88/65/37 94/57/43 95/85/48 89/84/42
f 89/63/42 95/55/48 96/54/47 90/62/41
f 90/83/41 96/82/47 91/52/46 85/60/40
f 91/52/46 1/1/1 2/51/4 92/82/45
f 92/59/45 2/5/4 3/8/6 93/58/44
f 93/85/44 3/51/6 4/1/8 94/57/43
f 94/57/43 4/1/8 5/51/10 95/85/48
f 95/55/48 5/11/10 6/14/12 96/54/47
f 96/82/47 6/51/12 1/1/1 91/52/46
f 98/86/49 99/87/49 97/1/49
f 99/87/49 100/88/49 97/1/49
f 100/88/49 101/89/49 97/1/49
f 101/89/49 102/90/49 97/1/49
f 102/90/49 103/91/49 97/1/49
f 103/91/49 104/92/49 97/1/49
f 104/92/49 105/93/49 97/1/49
f 105/93/49 106/94/49 97/1/49
f 106/94/49 107/95/49 97/1/49
f 107/95/49 108/96/49 97/1/49
f 108/96/49 109/97/49 97/1/49
f 109/97/49 110/86/49 97/1/49
f 111/1/50 113/91/50 112/92/50
f 111/1/50 114/90/50 113/91/50
f 111/1/50 115/89/50 114/90/50
f 111/1/50 116/88/50 115/89/50
f 111/1/50 117/87/50 116/88/50
f 111/1/50 118/86/50 117/87/50
f 111/1/50 119/97/50 118/86/50
f 111/1/50 120/96/50 119/97/50
f 111/1/50 121/95/50 120/96/50
f 111/1/50 122/94/50 121/95/50
f 111/1/50 123/93/50 122/94/50
f 111/1/50 124/92/50 123/93/50
